<svg width="17" height="16" viewBox="0 0 17 16" fill="none" xmlns="http://www.w3.org/2000/svg">
<path fill-rule="evenodd" clip-rule="evenodd" d="M5.49414 0H11.4941C14.2551 0 16.4941 2.239 16.4941 5V11C16.4941 13.761 14.2551 16 11.4941 16H5.49414C2.73314 16 0.494141 13.761 0.494141 11V5C0.494141 2.239 2.73314 0 5.49414 0ZM11.4941 14.5C13.4241 14.5 14.9941 12.93 14.9941 11V5C14.9941 3.07 13.4241 1.5 11.4941 1.5H5.49414C3.56414 1.5 1.99414 3.07 1.99414 5V11C1.99414 12.93 3.56414 14.5 5.49414 14.5H11.4941Z" fill="#333333"/>
<path fill-rule="evenodd" clip-rule="evenodd" d="M4.49414 8C4.49414 5.791 6.28514 4 8.49414 4C10.7031 4 12.4941 5.791 12.4941 8C12.4941 10.209 10.7031 12 8.49414 12C6.28514 12 4.49414 10.209 4.49414 8ZM5.99414 8C5.99414 9.378 7.11614 10.5 8.49414 10.5C9.87214 10.5 10.9941 9.378 10.9941 8C10.9941 6.621 9.87214 5.5 8.49414 5.5C7.11614 5.5 5.99414 6.621 5.99414 8Z" fill="#333333"/>
<circle cx="12.7942" cy="3.69999" r="0.533" fill="#333333"/>
</svg>
