<svg width="21" height="16" viewBox="0 0 21 16" fill="none" xmlns="http://www.w3.org/2000/svg">
<path d="M20.4943 1.93666C19.7671 2.25566 18.9922 2.46711 18.1843 2.56978C19.0154 2.07355 19.6497 1.29378 19.9479 0.353886C19.1731 0.815886 18.3175 1.14222 17.4057 1.32433C16.6699 0.540886 15.6213 0.0556641 14.4773 0.0556641C12.2577 0.0556641 10.4708 1.85722 10.4708 4.06578C10.4708 4.38355 10.4977 4.68911 10.5637 4.98C7.23072 4.81744 4.2815 3.22 2.30028 0.786553C1.95439 1.38666 1.7515 2.07355 1.7515 2.813C1.7515 4.20144 2.4665 5.43222 3.53228 6.14478C2.88816 6.13255 2.25628 5.94555 1.72094 5.651C1.72094 5.66322 1.72094 5.67911 1.72094 5.695C1.72094 7.64322 3.11061 9.26144 4.93294 9.63422C4.60661 9.72344 4.25094 9.76622 3.88183 9.76622C3.62517 9.76622 3.36605 9.75155 3.12283 9.69777C3.64228 11.2854 5.11628 12.4527 6.86894 12.4906C5.50494 13.5576 3.77305 14.2004 1.89817 14.2004C1.56939 14.2004 1.25405 14.1858 0.938721 14.1454C2.71461 15.2907 4.81928 15.9446 7.08894 15.9446C14.4663 15.9446 18.4996 9.83344 18.4996 4.53633C18.4996 4.35911 18.4935 4.188 18.4849 4.01811C19.2806 3.45344 19.9492 2.74822 20.4943 1.93666Z" fill="#333333"/>
</svg>
